<mxfile host="app.diagrams.net" agent="Mozilla/5.0 (Windows NT 10.0; Win64; x64) AppleWebKit/537.36 (KHTML, like Gecko) Chrome/130.0.0.0 Safari/537.36" version="24.8.3">
  <diagram name="Страница — 1" id="6JygPWgWs-crQrJny-IM">
    <mxGraphModel dx="1195" dy="615" grid="1" gridSize="10" guides="1" tooltips="1" connect="1" arrows="1" fold="1" page="1" pageScale="1" pageWidth="827" pageHeight="1169" math="0" shadow="0">
      <root>
        <mxCell id="0" />
        <mxCell id="1" parent="0" />
        <mxCell id="TBTGlxb769zPqR5EU0-j-6" value="MyTcpServer" style="html=1;whiteSpace=wrap;" vertex="1" parent="1">
          <mxGeometry x="10" y="10" width="220" height="20" as="geometry" />
        </mxCell>
        <mxCell id="TBTGlxb769zPqR5EU0-j-7" value="- mTcpServer: QTcpServer*&amp;nbsp;&lt;div&gt;- mTcpSocket: QMap&amp;lt;int, QTcpSocket*&amp;gt;&lt;div&gt;&lt;span style=&quot;background-color: initial;&quot;&gt;- server_status: int&lt;/span&gt;&lt;/div&gt;&lt;/div&gt;" style="html=1;whiteSpace=wrap;align=left;" vertex="1" parent="1">
          <mxGeometry x="10" y="30" width="220" height="50" as="geometry" />
        </mxCell>
        <mxCell id="TBTGlxb769zPqR5EU0-j-8" value="+ MyTcpServer(parent: QObject*)&lt;div&gt;+ ~MyTcpServer()&lt;div&gt;+ slotNewConnection()&lt;div&gt;+ slotClientDisconnected()&lt;div&gt;+ slotServerRead()&lt;/div&gt;&lt;/div&gt;&lt;/div&gt;&lt;/div&gt;" style="html=1;whiteSpace=wrap;align=left;" vertex="1" parent="1">
          <mxGeometry x="10" y="80" width="220" height="70" as="geometry" />
        </mxCell>
        <mxCell id="TBTGlxb769zPqR5EU0-j-9" value="Function" style="html=1;whiteSpace=wrap;" vertex="1" parent="1">
          <mxGeometry x="360" y="10" width="390" height="20" as="geometry" />
        </mxCell>
        <mxCell id="TBTGlxb769zPqR5EU0-j-10" value="+ auth(login: QString, password: QString, socket: QString): QByteArray&lt;div&gt;+ reg(login: QString, password: QString, email: QString): QByteArray&lt;/div&gt;&lt;div&gt;+ check_stat(socket: QString): QByteArray&lt;/div&gt;&lt;div&gt;+ check_stat_all(): QByteArray&lt;/div&gt;&lt;div&gt;+ out(login: QString): QByteArray&lt;/div&gt;&lt;div&gt;+ send_answ(task: QString, var: QString, answer: QString): QByteArray&lt;/div&gt;&lt;div&gt;+ Parsing(a: QString, socket: QString): QByteArray&lt;/div&gt;" style="html=1;whiteSpace=wrap;align=left;" vertex="1" parent="1">
          <mxGeometry x="360" y="30" width="390" height="100" as="geometry" />
        </mxCell>
        <mxCell id="TBTGlxb769zPqR5EU0-j-12" value="Db_sing" style="html=1;whiteSpace=wrap;" vertex="1" parent="1">
          <mxGeometry x="10" y="180" width="330" height="20" as="geometry" />
        </mxCell>
        <mxCell id="TBTGlxb769zPqR5EU0-j-13" value="- p_instance: MyDataBase*&lt;div&gt;- db: QSqlDatabase&lt;/div&gt;" style="html=1;whiteSpace=wrap;align=left;" vertex="1" parent="1">
          <mxGeometry x="10" y="200" width="330" height="50" as="geometry" />
        </mxCell>
        <mxCell id="TBTGlxb769zPqR5EU0-j-14" value="+ getInstance(): MyDataBase*&lt;div&gt;+ query(q: QString): QString&lt;/div&gt;&lt;div&gt;+ add(login: QString, password: QString, email: QString): void&lt;/div&gt;&lt;div&gt;+ login(login: QString, socket: QString): void&lt;/div&gt;&lt;div&gt;+ logout(login: QString): void&lt;/div&gt;&lt;div&gt;+ stat(socket: QString): QByteArray&lt;/div&gt;&lt;div&gt;+ stat_all(): QByteArray&lt;/div&gt;" style="html=1;whiteSpace=wrap;align=left;" vertex="1" parent="1">
          <mxGeometry x="10" y="250" width="330" height="100" as="geometry" />
        </mxCell>
        <mxCell id="TBTGlxb769zPqR5EU0-j-15" value="SingltonDestroyer" style="html=1;whiteSpace=wrap;" vertex="1" parent="1">
          <mxGeometry x="470" y="230" width="190" height="20" as="geometry" />
        </mxCell>
        <mxCell id="TBTGlxb769zPqR5EU0-j-16" value="- p_instance: MyDataBase*" style="html=1;whiteSpace=wrap;align=left;" vertex="1" parent="1">
          <mxGeometry x="470" y="250" width="190" height="20" as="geometry" />
        </mxCell>
        <mxCell id="TBTGlxb769zPqR5EU0-j-17" value="&lt;div&gt;+ ~SingletonDestroyer()&amp;nbsp; |&lt;/div&gt;&lt;div&gt;| + initialize(p: MyDataBase*): void&lt;/div&gt;" style="html=1;whiteSpace=wrap;align=left;" vertex="1" parent="1">
          <mxGeometry x="470" y="270" width="190" height="30" as="geometry" />
        </mxCell>
        <mxCell id="TBTGlxb769zPqR5EU0-j-19" style="edgeStyle=orthogonalEdgeStyle;rounded=0;orthogonalLoop=1;jettySize=auto;html=1;entryX=0.006;entryY=0.442;entryDx=0;entryDy=0;entryPerimeter=0;endArrow=none;endFill=0;exitX=1;exitY=0;exitDx=0;exitDy=0;" edge="1" parent="1" source="TBTGlxb769zPqR5EU0-j-8" target="TBTGlxb769zPqR5EU0-j-10">
          <mxGeometry relative="1" as="geometry">
            <Array as="points">
              <mxPoint x="230" y="74" />
            </Array>
          </mxGeometry>
        </mxCell>
        <mxCell id="TBTGlxb769zPqR5EU0-j-20" style="rounded=0;orthogonalLoop=1;jettySize=auto;html=1;entryX=1;entryY=0.5;entryDx=0;entryDy=0;endArrow=none;endFill=0;" edge="1" parent="1" target="TBTGlxb769zPqR5EU0-j-12">
          <mxGeometry relative="1" as="geometry">
            <mxPoint x="555" y="130" as="sourcePoint" />
          </mxGeometry>
        </mxCell>
        <mxCell id="TBTGlxb769zPqR5EU0-j-21" style="edgeStyle=orthogonalEdgeStyle;rounded=0;orthogonalLoop=1;jettySize=auto;html=1;exitX=0.5;exitY=1;exitDx=0;exitDy=0;entryX=0.447;entryY=-0.042;entryDx=0;entryDy=0;entryPerimeter=0;endArrow=none;endFill=0;" edge="1" parent="1" source="TBTGlxb769zPqR5EU0-j-10" target="TBTGlxb769zPqR5EU0-j-15">
          <mxGeometry relative="1" as="geometry" />
        </mxCell>
      </root>
    </mxGraphModel>
  </diagram>
</mxfile>
